<?xml version="1.0" encoding="utf-8" standalone="no"?>
<!DOCTYPE svg PUBLIC "-//W3C//DTD SVG 1.1//EN"
  "http://www.w3.org/Graphics/SVG/1.1/DTD/svg11.dtd">
<!-- Created with matplotlib (https://matplotlib.org/) -->
<svg height="155.42pt" version="1.1" viewBox="0 0 547.1 155.42" width="547.1pt" xmlns="http://www.w3.org/2000/svg" xmlns:xlink="http://www.w3.org/1999/xlink">
 <defs>
  <style type="text/css">
*{stroke-linecap:butt;stroke-linejoin:round;}
  </style>
 </defs>
 <g id="figure_1">
  <g id="patch_1">
   <path d="M 0 155.42 
L 547.1 155.42 
L 547.1 0 
L 0 0 
z
" style="fill:none;"/>
  </g>
  <g id="axes_1">
   <g id="patch_2">
    <path d="M -3.7 159.12 
L 554.3 159.12 
L 554.3 -7.2 
L -3.7 -7.2 
z
" style="fill:none;"/>
   </g>
   <g id="matplotlib.axis_1"/>
   <g id="matplotlib.axis_2"/>
   <g id="line2d_1">
    <path clip-path="url(#p61a6c6fe0d)" d="M 7.030769 78.067197 
L 9.368627 76.46346 
L 10.537557 75.828492 
L 11.706486 75.42701 
L 12.875415 75.34193 
L 14.044344 75.641954 
L 15.213273 76.375934 
L 16.382202 77.567965 
L 17.551131 79.213529 
L 18.72006 81.27701 
L 21.057919 86.356211 
L 24.564706 94.480007 
L 25.733635 96.678416 
L 26.902564 98.327765 
L 28.071493 99.260107 
L 29.240422 99.327397 
L 30.409351 98.411489 
L 31.578281 96.433328 
L 32.74721 93.360782 
L 33.916139 89.214577 
L 35.085068 84.071887 
L 36.253997 78.067197 
L 38.591855 64.280787 
L 40.929713 49.922907 
L 42.098643 43.31831 
L 43.267572 37.540733 
L 44.436501 32.910814 
L 45.60543 29.719514 
L 46.774359 28.212124 
L 47.943288 28.573611 
L 49.112217 30.916122 
L 50.281146 35.269427 
L 51.450075 41.574904 
L 52.619005 49.683575 
L 53.787934 59.358459 
L 56.125792 82.063713 
L 59.632579 117.963574 
L 60.801508 128.477243 
L 61.970437 137.471045 
L 63.139367 144.530766 
L 64.308296 149.312481 
L 65.477225 151.56 
L 66.646154 151.118609 
L 67.815083 147.944326 
L 68.984012 142.108143 
L 70.152941 133.794941 
L 71.32187 123.297051 
L 72.490799 111.0027 
L 74.828658 82.956119 
L 77.166516 53.975411 
L 78.335445 40.557452 
L 79.504374 28.566415 
L 80.673303 18.465328 
L 81.842232 10.635727 
L 83.011161 5.361414 
L 84.18009 2.816856 
L 85.34902 3.060737 
L 86.517949 6.03494 
L 87.686878 11.56892 
L 88.855807 19.389202 
L 90.024736 29.133453 
L 92.362594 52.610442 
L 95.869382 90.269365 
L 97.038311 101.497738 
L 98.20724 111.353468 
L 99.376169 119.511559 
L 100.545098 125.732287 
L 101.714027 129.868217 
L 102.882956 131.86666 
L 104.051885 131.767612 
L 105.220814 129.697477 
L 106.389744 125.859041 
L 107.558673 120.518362 
L 108.727602 113.989348 
L 111.06546 98.759474 
L 113.403318 82.990104 
L 114.572247 75.715667 
L 115.741176 69.205611 
L 116.910106 63.662986 
L 118.079035 59.231443 
L 119.247964 55.992899 
L 120.416893 53.968362 
L 121.585822 53.121656 
L 122.754751 53.365689 
L 123.92368 54.570772 
L 125.092609 56.574437 
L 126.261538 59.192151 
L 128.599397 65.487057 
L 130.937255 71.945016 
L 132.106184 74.833252 
L 133.275113 77.334231 
L 134.444042 79.369055 
L 135.612971 80.893552 
L 136.7819 81.897502 
L 137.95083 82.402119 
L 139.119759 82.456047 
L 140.288688 82.130193 
L 141.457617 81.511744 
L 143.795475 79.788656 
L 146.133333 78.067197 
L 404.466667 78.067197 
L 405.635596 78.224842 
L 406.804525 78.702161 
L 407.973454 79.487922 
L 409.142383 80.546497 
L 411.480241 83.2211 
L 413.8181 86.002262 
L 414.987029 87.141353 
L 416.155958 87.945985 
L 417.324887 88.296495 
L 418.493816 88.086893 
L 419.662745 87.232567 
L 420.831674 85.677427 
L 422.000603 83.400042 
L 423.169532 80.41834 
L 424.338462 76.79251 
L 426.67632 68.062906 
L 430.183107 53.968362 
L 431.352036 49.912127 
L 432.520965 46.589508 
L 433.689894 44.236968 
L 434.858824 43.06528 
L 436.027753 43.2467 
L 437.196682 44.90322 
L 438.365611 48.096572 
L 439.53454 52.820652 
L 440.703469 58.996891 
L 441.872398 66.473008 
L 444.210256 84.365357 
L 447.717044 113.472591 
L 448.885973 122.1788 
L 450.054902 129.696813 
L 451.223831 135.646771 
L 452.39276 139.698678 
L 453.561689 141.590009 
L 454.730618 141.140799 
L 455.899548 138.265349 
L 457.068477 132.979849 
L 458.237406 125.405381 
L 459.406335 115.766025 
L 460.575264 104.381985 
L 462.913122 78.067197 
L 466.41991 37.425576 
L 467.588839 25.735361 
L 468.757768 15.813643 
L 469.926697 8.07569 
L 471.095626 2.849407 
L 472.264555 0.36 
L 473.433484 0.719299 
L 474.602413 3.920304 
L 475.771342 9.837225 
L 476.940271 18.231031 
L 478.109201 28.760243 
L 479.27813 40.996433 
L 481.615988 68.560868 
L 483.953846 96.561937 
L 485.122775 109.35891 
L 486.291704 120.699255 
L 487.460633 130.176341 
L 488.629563 137.471045 
L 489.798492 142.363621 
L 490.967421 144.740701 
L 492.13635 144.597206 
L 493.305279 142.033201 
L 494.474208 137.24599 
L 495.643137 130.517967 
L 496.812066 122.20096 
L 499.149925 102.442907 
L 502.656712 71.544775 
L 503.825641 62.538685 
L 504.99457 54.729471 
L 506.163499 48.349809 
L 507.332428 43.556539 
L 508.501357 40.428084 
L 509.670287 38.965709 
L 510.839216 39.098369 
L 512.008145 40.690701 
L 513.177074 43.553598 
L 514.346003 47.456691 
L 515.514932 52.142005 
L 521.359578 78.067197 
L 522.528507 82.16716 
L 523.697436 85.540356 
L 524.866365 88.118847 
L 526.035294 89.880734 
L 527.204223 90.847184 
L 528.373152 91.077493 
L 529.542081 90.66258 
L 530.711011 89.717357 
L 531.87994 88.372464 
L 534.217798 85.034496 
L 536.555656 81.69797 
L 537.724585 80.300848 
L 538.893514 79.186398 
L 540.062443 78.399513 
L 541.231373 77.958892 
L 542.400302 77.857972 
L 543.569231 78.067197 
L 543.569231 78.067197 
" style="fill:none;stroke:#e24a33;stroke-linecap:square;stroke-width:3;"/>
   </g>
   <g id="line2d_2">
    <path clip-path="url(#p61a6c6fe0d)" d="M 7.030769 78.067197 
L 8.199698 78.224842 
L 9.368627 78.702161 
L 10.537557 79.487922 
L 11.706486 80.546497 
L 14.044344 83.2211 
L 16.382202 86.002262 
L 17.551131 87.141353 
L 18.72006 87.945985 
L 19.888989 88.296495 
L 21.057919 88.086893 
L 22.226848 87.232567 
L 23.395777 85.677427 
L 24.564706 83.400042 
L 25.733635 80.41834 
L 26.902564 76.79251 
L 29.240422 68.062906 
L 32.74721 53.968362 
L 33.916139 49.912127 
L 35.085068 46.589508 
L 36.253997 44.236968 
L 37.422926 43.06528 
L 38.591855 43.2467 
L 39.760784 44.90322 
L 40.929713 48.096572 
L 42.098643 52.820652 
L 43.267572 58.996891 
L 44.436501 66.473008 
L 46.774359 84.365357 
L 50.281146 113.472591 
L 51.450075 122.1788 
L 52.619005 129.696813 
L 53.787934 135.646771 
L 54.956863 139.698678 
L 56.125792 141.590009 
L 57.294721 141.140799 
L 58.46365 138.265349 
L 59.632579 132.979849 
L 60.801508 125.405381 
L 61.970437 115.766025 
L 63.139367 104.381985 
L 65.477225 78.067197 
L 68.984012 37.425576 
L 70.152941 25.735361 
L 71.32187 15.813643 
L 72.490799 8.07569 
L 73.659729 2.849407 
L 74.828658 0.36 
L 75.997587 0.719299 
L 77.166516 3.920304 
L 78.335445 9.837225 
L 79.504374 18.231031 
L 80.673303 28.760243 
L 81.842232 40.996433 
L 84.18009 68.560868 
L 86.517949 96.561937 
L 87.686878 109.35891 
L 88.855807 120.699255 
L 90.024736 130.176341 
L 91.193665 137.471045 
L 92.362594 142.363621 
L 93.531523 144.740701 
L 94.700452 144.597206 
L 95.869382 142.033201 
L 97.038311 137.24599 
L 98.20724 130.517967 
L 99.376169 122.20096 
L 101.714027 102.442907 
L 105.220814 71.544775 
L 106.389744 62.538685 
L 107.558673 54.729471 
L 108.727602 48.349809 
L 109.896531 43.556539 
L 111.06546 40.428084 
L 112.234389 38.965709 
L 113.403318 39.098369 
L 114.572247 40.690701 
L 115.741176 43.553598 
L 116.910106 47.456691 
L 118.079035 52.142005 
L 123.92368 78.067197 
L 125.092609 82.16716 
L 126.261538 85.540356 
L 127.430468 88.118847 
L 128.599397 89.880734 
L 129.768326 90.847184 
L 130.937255 91.077493 
L 132.106184 90.66258 
L 133.275113 89.717357 
L 134.444042 88.372464 
L 136.7819 85.034496 
L 139.119759 81.69797 
L 140.288688 80.300848 
L 141.457617 79.186398 
L 142.626546 78.399513 
L 143.795475 77.958892 
L 144.964404 77.857972 
L 146.133333 78.067197 
L 404.466667 78.067197 
L 406.804525 76.46346 
L 407.973454 75.828492 
L 409.142383 75.42701 
L 410.311312 75.34193 
L 411.480241 75.641954 
L 412.64917 76.375934 
L 413.8181 77.567965 
L 414.987029 79.213529 
L 416.155958 81.27701 
L 418.493816 86.356211 
L 422.000603 94.480007 
L 423.169532 96.678416 
L 424.338462 98.327765 
L 425.507391 99.260107 
L 426.67632 99.327397 
L 427.845249 98.411489 
L 429.014178 96.433328 
L 430.183107 93.360782 
L 431.352036 89.214577 
L 432.520965 84.071887 
L 433.689894 78.067197 
L 436.027753 64.280787 
L 438.365611 49.922907 
L 439.53454 43.31831 
L 440.703469 37.540733 
L 441.872398 32.910814 
L 443.041327 29.719514 
L 444.210256 28.212124 
L 445.379186 28.573611 
L 446.548115 30.916122 
L 447.717044 35.269427 
L 448.885973 41.574904 
L 450.054902 49.683575 
L 451.223831 59.358459 
L 453.561689 82.063713 
L 457.068477 117.963574 
L 458.237406 128.477243 
L 459.406335 137.471045 
L 460.575264 144.530766 
L 461.744193 149.312481 
L 462.913122 151.56 
L 464.082051 151.118609 
L 465.25098 147.944326 
L 466.41991 142.108143 
L 467.588839 133.794941 
L 468.757768 123.297051 
L 469.926697 111.0027 
L 472.264555 82.956119 
L 474.602413 53.975411 
L 475.771342 40.557452 
L 476.940271 28.566415 
L 478.109201 18.465328 
L 479.27813 10.635727 
L 480.447059 5.361414 
L 481.615988 2.816856 
L 482.784917 3.060737 
L 483.953846 6.03494 
L 485.122775 11.56892 
L 486.291704 19.389202 
L 487.460633 29.133453 
L 489.798492 52.610442 
L 493.305279 90.269365 
L 494.474208 101.497738 
L 495.643137 111.353468 
L 496.812066 119.511559 
L 497.980995 125.732287 
L 499.149925 129.868217 
L 500.318854 131.86666 
L 501.487783 131.767612 
L 502.656712 129.697477 
L 503.825641 125.859041 
L 504.99457 120.518362 
L 506.163499 113.989348 
L 508.501357 98.759474 
L 510.839216 82.990104 
L 512.008145 75.715667 
L 513.177074 69.205611 
L 514.346003 63.662986 
L 515.514932 59.231443 
L 516.683861 55.992899 
L 517.85279 53.968362 
L 519.021719 53.121656 
L 520.190649 53.365689 
L 521.359578 54.570772 
L 522.528507 56.574437 
L 523.697436 59.192151 
L 526.035294 65.487057 
L 528.373152 71.945016 
L 529.542081 74.833252 
L 530.711011 77.334231 
L 531.87994 79.369055 
L 533.048869 80.893552 
L 534.217798 81.897502 
L 535.386727 82.402119 
L 536.555656 82.456047 
L 537.724585 82.130193 
L 538.893514 81.511744 
L 541.231373 79.788656 
L 543.569231 78.067197 
L 543.569231 78.067197 
" style="fill:none;stroke:#348abd;stroke-linecap:square;stroke-width:3;"/>
   </g>
   <g id="patch_3">
    <path style="fill:none;stroke:#ffffff;stroke-linecap:square;stroke-linejoin:miter;"/>
   </g>
   <g id="patch_4">
    <path style="fill:none;stroke:#ffffff;stroke-linecap:square;stroke-linejoin:miter;"/>
   </g>
   <g id="patch_5">
    <path style="fill:none;stroke:#ffffff;stroke-linecap:square;stroke-linejoin:miter;"/>
   </g>
   <g id="patch_6">
    <path style="fill:none;stroke:#ffffff;stroke-linecap:square;stroke-linejoin:miter;"/>
   </g>
   <g id="text_1">
    <!-- seQuencing -->
    <defs>
     <path d="M 44.28125 53.078125 
L 44.28125 44.578125 
Q 40.484375 46.53125 36.375 47.5 
Q 32.28125 48.484375 27.875 48.484375 
Q 21.1875 48.484375 17.84375 46.4375 
Q 14.5 44.390625 14.5 40.28125 
Q 14.5 37.15625 16.890625 35.375 
Q 19.28125 33.59375 26.515625 31.984375 
L 29.59375 31.296875 
Q 39.15625 29.25 43.1875 25.515625 
Q 47.21875 21.78125 47.21875 15.09375 
Q 47.21875 7.46875 41.1875 3.015625 
Q 35.15625 -1.421875 24.609375 -1.421875 
Q 20.21875 -1.421875 15.453125 -0.5625 
Q 10.6875 0.296875 5.421875 2 
L 5.421875 11.28125 
Q 10.40625 8.6875 15.234375 7.390625 
Q 20.0625 6.109375 24.8125 6.109375 
Q 31.15625 6.109375 34.5625 8.28125 
Q 37.984375 10.453125 37.984375 14.40625 
Q 37.984375 18.0625 35.515625 20.015625 
Q 33.0625 21.96875 24.703125 23.78125 
L 21.578125 24.515625 
Q 13.234375 26.265625 9.515625 29.90625 
Q 5.8125 33.546875 5.8125 39.890625 
Q 5.8125 47.609375 11.28125 51.796875 
Q 16.75 56 26.8125 56 
Q 31.78125 56 36.171875 55.265625 
Q 40.578125 54.546875 44.28125 53.078125 
z
" id="DejaVuSans-115"/>
     <path d="M 56.203125 29.59375 
L 56.203125 25.203125 
L 14.890625 25.203125 
Q 15.484375 15.921875 20.484375 11.0625 
Q 25.484375 6.203125 34.421875 6.203125 
Q 39.59375 6.203125 44.453125 7.46875 
Q 49.3125 8.734375 54.109375 11.28125 
L 54.109375 2.78125 
Q 49.265625 0.734375 44.1875 -0.34375 
Q 39.109375 -1.421875 33.890625 -1.421875 
Q 20.796875 -1.421875 13.15625 6.1875 
Q 5.515625 13.8125 5.515625 26.8125 
Q 5.515625 40.234375 12.765625 48.109375 
Q 20.015625 56 32.328125 56 
Q 43.359375 56 49.78125 48.890625 
Q 56.203125 41.796875 56.203125 29.59375 
z
M 47.21875 32.234375 
Q 47.125 39.59375 43.09375 43.984375 
Q 39.0625 48.390625 32.421875 48.390625 
Q 24.90625 48.390625 20.390625 44.140625 
Q 15.875 39.890625 15.1875 32.171875 
z
" id="DejaVuSans-101"/>
     <path d="M 39.40625 66.21875 
Q 28.65625 66.21875 22.328125 58.203125 
Q 16.015625 50.203125 16.015625 36.375 
Q 16.015625 22.609375 22.328125 14.59375 
Q 28.65625 6.59375 39.40625 6.59375 
Q 50.140625 6.59375 56.421875 14.59375 
Q 62.703125 22.609375 62.703125 36.375 
Q 62.703125 50.203125 56.421875 58.203125 
Q 50.140625 66.21875 39.40625 66.21875 
z
M 53.21875 1.3125 
L 66.21875 -12.890625 
L 54.296875 -12.890625 
L 43.5 -1.21875 
Q 41.890625 -1.3125 41.03125 -1.359375 
Q 40.1875 -1.421875 39.40625 -1.421875 
Q 24.03125 -1.421875 14.8125 8.859375 
Q 5.609375 19.140625 5.609375 36.375 
Q 5.609375 53.65625 14.8125 63.9375 
Q 24.03125 74.21875 39.40625 74.21875 
Q 54.734375 74.21875 63.90625 63.9375 
Q 73.09375 53.65625 73.09375 36.375 
Q 73.09375 23.6875 67.984375 14.640625 
Q 62.890625 5.609375 53.21875 1.3125 
z
" id="DejaVuSans-81"/>
     <path d="M 8.5 21.578125 
L 8.5 54.6875 
L 17.484375 54.6875 
L 17.484375 21.921875 
Q 17.484375 14.15625 20.5 10.265625 
Q 23.53125 6.390625 29.59375 6.390625 
Q 36.859375 6.390625 41.078125 11.03125 
Q 45.3125 15.671875 45.3125 23.6875 
L 45.3125 54.6875 
L 54.296875 54.6875 
L 54.296875 0 
L 45.3125 0 
L 45.3125 8.40625 
Q 42.046875 3.421875 37.71875 1 
Q 33.40625 -1.421875 27.6875 -1.421875 
Q 18.265625 -1.421875 13.375 4.4375 
Q 8.5 10.296875 8.5 21.578125 
z
M 31.109375 56 
z
" id="DejaVuSans-117"/>
     <path d="M 54.890625 33.015625 
L 54.890625 0 
L 45.90625 0 
L 45.90625 32.71875 
Q 45.90625 40.484375 42.875 44.328125 
Q 39.84375 48.1875 33.796875 48.1875 
Q 26.515625 48.1875 22.3125 43.546875 
Q 18.109375 38.921875 18.109375 30.90625 
L 18.109375 0 
L 9.078125 0 
L 9.078125 54.6875 
L 18.109375 54.6875 
L 18.109375 46.1875 
Q 21.34375 51.125 25.703125 53.5625 
Q 30.078125 56 35.796875 56 
Q 45.21875 56 50.046875 50.171875 
Q 54.890625 44.34375 54.890625 33.015625 
z
" id="DejaVuSans-110"/>
     <path d="M 48.78125 52.59375 
L 48.78125 44.1875 
Q 44.96875 46.296875 41.140625 47.34375 
Q 37.3125 48.390625 33.40625 48.390625 
Q 24.65625 48.390625 19.8125 42.84375 
Q 14.984375 37.3125 14.984375 27.296875 
Q 14.984375 17.28125 19.8125 11.734375 
Q 24.65625 6.203125 33.40625 6.203125 
Q 37.3125 6.203125 41.140625 7.25 
Q 44.96875 8.296875 48.78125 10.40625 
L 48.78125 2.09375 
Q 45.015625 0.34375 40.984375 -0.53125 
Q 36.96875 -1.421875 32.421875 -1.421875 
Q 20.0625 -1.421875 12.78125 6.34375 
Q 5.515625 14.109375 5.515625 27.296875 
Q 5.515625 40.671875 12.859375 48.328125 
Q 20.21875 56 33.015625 56 
Q 37.15625 56 41.109375 55.140625 
Q 45.0625 54.296875 48.78125 52.59375 
z
" id="DejaVuSans-99"/>
     <path d="M 9.421875 54.6875 
L 18.40625 54.6875 
L 18.40625 0 
L 9.421875 0 
z
M 9.421875 75.984375 
L 18.40625 75.984375 
L 18.40625 64.59375 
L 9.421875 64.59375 
z
" id="DejaVuSans-105"/>
     <path d="M 45.40625 27.984375 
Q 45.40625 37.75 41.375 43.109375 
Q 37.359375 48.484375 30.078125 48.484375 
Q 22.859375 48.484375 18.828125 43.109375 
Q 14.796875 37.75 14.796875 27.984375 
Q 14.796875 18.265625 18.828125 12.890625 
Q 22.859375 7.515625 30.078125 7.515625 
Q 37.359375 7.515625 41.375 12.890625 
Q 45.40625 18.265625 45.40625 27.984375 
z
M 54.390625 6.78125 
Q 54.390625 -7.171875 48.1875 -13.984375 
Q 42 -20.796875 29.203125 -20.796875 
Q 24.46875 -20.796875 20.265625 -20.09375 
Q 16.0625 -19.390625 12.109375 -17.921875 
L 12.109375 -9.1875 
Q 16.0625 -11.328125 19.921875 -12.34375 
Q 23.78125 -13.375 27.78125 -13.375 
Q 36.625 -13.375 41.015625 -8.765625 
Q 45.40625 -4.15625 45.40625 5.171875 
L 45.40625 9.625 
Q 42.625 4.78125 38.28125 2.390625 
Q 33.9375 0 27.875 0 
Q 17.828125 0 11.671875 7.65625 
Q 5.515625 15.328125 5.515625 27.984375 
Q 5.515625 40.671875 11.671875 48.328125 
Q 17.828125 56 27.875 56 
Q 33.9375 56 38.28125 53.609375 
Q 42.625 51.21875 45.40625 46.390625 
L 45.40625 54.6875 
L 54.390625 54.6875 
z
" id="DejaVuSans-103"/>
    </defs>
    <g transform="translate(151.3475 60.530999)scale(0.42 -0.42)">
     <use xlink:href="#DejaVuSans-115"/>
     <use x="52.099609" xlink:href="#DejaVuSans-101"/>
     <use x="113.623047" xlink:href="#DejaVuSans-81"/>
     <use x="192.333984" xlink:href="#DejaVuSans-117"/>
     <use x="255.712891" xlink:href="#DejaVuSans-101"/>
     <use x="317.236328" xlink:href="#DejaVuSans-110"/>
     <use x="380.615234" xlink:href="#DejaVuSans-99"/>
     <use x="435.595703" xlink:href="#DejaVuSans-105"/>
     <use x="463.378906" xlink:href="#DejaVuSans-110"/>
     <use x="526.757812" xlink:href="#DejaVuSans-103"/>
    </g>
   </g>
   <g id="text_2">
    <!-- Simulate realistic -->
    <defs>
     <path d="M 53.515625 70.515625 
L 53.515625 60.890625 
Q 47.90625 63.578125 42.921875 64.890625 
Q 37.9375 66.21875 33.296875 66.21875 
Q 25.25 66.21875 20.875 63.09375 
Q 16.5 59.96875 16.5 54.203125 
Q 16.5 49.359375 19.40625 46.890625 
Q 22.3125 44.4375 30.421875 42.921875 
L 36.375 41.703125 
Q 47.40625 39.59375 52.65625 34.296875 
Q 57.90625 29 57.90625 20.125 
Q 57.90625 9.515625 50.796875 4.046875 
Q 43.703125 -1.421875 29.984375 -1.421875 
Q 24.8125 -1.421875 18.96875 -0.25 
Q 13.140625 0.921875 6.890625 3.21875 
L 6.890625 13.375 
Q 12.890625 10.015625 18.65625 8.296875 
Q 24.421875 6.59375 29.984375 6.59375 
Q 38.421875 6.59375 43.015625 9.90625 
Q 47.609375 13.234375 47.609375 19.390625 
Q 47.609375 24.75 44.3125 27.78125 
Q 41.015625 30.8125 33.5 32.328125 
L 27.484375 33.5 
Q 16.453125 35.6875 11.515625 40.375 
Q 6.59375 45.0625 6.59375 53.421875 
Q 6.59375 63.09375 13.40625 68.65625 
Q 20.21875 74.21875 32.171875 74.21875 
Q 37.3125 74.21875 42.625 73.28125 
Q 47.953125 72.359375 53.515625 70.515625 
z
" id="DejaVuSans-83"/>
     <path d="M 52 44.1875 
Q 55.375 50.25 60.0625 53.125 
Q 64.75 56 71.09375 56 
Q 79.640625 56 84.28125 50.015625 
Q 88.921875 44.046875 88.921875 33.015625 
L 88.921875 0 
L 79.890625 0 
L 79.890625 32.71875 
Q 79.890625 40.578125 77.09375 44.375 
Q 74.3125 48.1875 68.609375 48.1875 
Q 61.625 48.1875 57.5625 43.546875 
Q 53.515625 38.921875 53.515625 30.90625 
L 53.515625 0 
L 44.484375 0 
L 44.484375 32.71875 
Q 44.484375 40.625 41.703125 44.40625 
Q 38.921875 48.1875 33.109375 48.1875 
Q 26.21875 48.1875 22.15625 43.53125 
Q 18.109375 38.875 18.109375 30.90625 
L 18.109375 0 
L 9.078125 0 
L 9.078125 54.6875 
L 18.109375 54.6875 
L 18.109375 46.1875 
Q 21.1875 51.21875 25.484375 53.609375 
Q 29.78125 56 35.6875 56 
Q 41.65625 56 45.828125 52.96875 
Q 50 49.953125 52 44.1875 
z
" id="DejaVuSans-109"/>
     <path d="M 9.421875 75.984375 
L 18.40625 75.984375 
L 18.40625 0 
L 9.421875 0 
z
" id="DejaVuSans-108"/>
     <path d="M 34.28125 27.484375 
Q 23.390625 27.484375 19.1875 25 
Q 14.984375 22.515625 14.984375 16.5 
Q 14.984375 11.71875 18.140625 8.90625 
Q 21.296875 6.109375 26.703125 6.109375 
Q 34.1875 6.109375 38.703125 11.40625 
Q 43.21875 16.703125 43.21875 25.484375 
L 43.21875 27.484375 
z
M 52.203125 31.203125 
L 52.203125 0 
L 43.21875 0 
L 43.21875 8.296875 
Q 40.140625 3.328125 35.546875 0.953125 
Q 30.953125 -1.421875 24.3125 -1.421875 
Q 15.921875 -1.421875 10.953125 3.296875 
Q 6 8.015625 6 15.921875 
Q 6 25.140625 12.171875 29.828125 
Q 18.359375 34.515625 30.609375 34.515625 
L 43.21875 34.515625 
L 43.21875 35.40625 
Q 43.21875 41.609375 39.140625 45 
Q 35.0625 48.390625 27.6875 48.390625 
Q 23 48.390625 18.546875 47.265625 
Q 14.109375 46.140625 10.015625 43.890625 
L 10.015625 52.203125 
Q 14.9375 54.109375 19.578125 55.046875 
Q 24.21875 56 28.609375 56 
Q 40.484375 56 46.34375 49.84375 
Q 52.203125 43.703125 52.203125 31.203125 
z
" id="DejaVuSans-97"/>
     <path d="M 18.3125 70.21875 
L 18.3125 54.6875 
L 36.8125 54.6875 
L 36.8125 47.703125 
L 18.3125 47.703125 
L 18.3125 18.015625 
Q 18.3125 11.328125 20.140625 9.421875 
Q 21.96875 7.515625 27.59375 7.515625 
L 36.8125 7.515625 
L 36.8125 0 
L 27.59375 0 
Q 17.1875 0 13.234375 3.875 
Q 9.28125 7.765625 9.28125 18.015625 
L 9.28125 47.703125 
L 2.6875 47.703125 
L 2.6875 54.6875 
L 9.28125 54.6875 
L 9.28125 70.21875 
z
" id="DejaVuSans-116"/>
     <path id="DejaVuSans-32"/>
     <path d="M 41.109375 46.296875 
Q 39.59375 47.171875 37.8125 47.578125 
Q 36.03125 48 33.890625 48 
Q 26.265625 48 22.1875 43.046875 
Q 18.109375 38.09375 18.109375 28.8125 
L 18.109375 0 
L 9.078125 0 
L 9.078125 54.6875 
L 18.109375 54.6875 
L 18.109375 46.1875 
Q 20.953125 51.171875 25.484375 53.578125 
Q 30.03125 56 36.53125 56 
Q 37.453125 56 38.578125 55.875 
Q 39.703125 55.765625 41.0625 55.515625 
z
" id="DejaVuSans-114"/>
    </defs>
    <g transform="translate(201.781641 103.762624)scale(0.17 -0.17)">
     <use xlink:href="#DejaVuSans-83"/>
     <use x="63.476562" xlink:href="#DejaVuSans-105"/>
     <use x="91.259766" xlink:href="#DejaVuSans-109"/>
     <use x="188.671875" xlink:href="#DejaVuSans-117"/>
     <use x="252.050781" xlink:href="#DejaVuSans-108"/>
     <use x="279.833984" xlink:href="#DejaVuSans-97"/>
     <use x="341.113281" xlink:href="#DejaVuSans-116"/>
     <use x="380.322266" xlink:href="#DejaVuSans-101"/>
     <use x="441.845703" xlink:href="#DejaVuSans-32"/>
     <use x="473.632812" xlink:href="#DejaVuSans-114"/>
     <use x="512.496094" xlink:href="#DejaVuSans-101"/>
     <use x="574.019531" xlink:href="#DejaVuSans-97"/>
     <use x="635.298828" xlink:href="#DejaVuSans-108"/>
     <use x="663.082031" xlink:href="#DejaVuSans-105"/>
     <use x="690.865234" xlink:href="#DejaVuSans-115"/>
     <use x="742.964844" xlink:href="#DejaVuSans-116"/>
     <use x="782.173828" xlink:href="#DejaVuSans-105"/>
     <use x="809.957031" xlink:href="#DejaVuSans-99"/>
    </g>
    <!-- quantum control sequences -->
    <defs>
     <path d="M 14.796875 27.296875 
Q 14.796875 17.390625 18.875 11.75 
Q 22.953125 6.109375 30.078125 6.109375 
Q 37.203125 6.109375 41.296875 11.75 
Q 45.40625 17.390625 45.40625 27.296875 
Q 45.40625 37.203125 41.296875 42.84375 
Q 37.203125 48.484375 30.078125 48.484375 
Q 22.953125 48.484375 18.875 42.84375 
Q 14.796875 37.203125 14.796875 27.296875 
z
M 45.40625 8.203125 
Q 42.578125 3.328125 38.25 0.953125 
Q 33.9375 -1.421875 27.875 -1.421875 
Q 17.96875 -1.421875 11.734375 6.484375 
Q 5.515625 14.40625 5.515625 27.296875 
Q 5.515625 40.1875 11.734375 48.09375 
Q 17.96875 56 27.875 56 
Q 33.9375 56 38.25 53.625 
Q 42.578125 51.265625 45.40625 46.390625 
L 45.40625 54.6875 
L 54.390625 54.6875 
L 54.390625 -20.796875 
L 45.40625 -20.796875 
z
" id="DejaVuSans-113"/>
     <path d="M 30.609375 48.390625 
Q 23.390625 48.390625 19.1875 42.75 
Q 14.984375 37.109375 14.984375 27.296875 
Q 14.984375 17.484375 19.15625 11.84375 
Q 23.34375 6.203125 30.609375 6.203125 
Q 37.796875 6.203125 41.984375 11.859375 
Q 46.1875 17.53125 46.1875 27.296875 
Q 46.1875 37.015625 41.984375 42.703125 
Q 37.796875 48.390625 30.609375 48.390625 
z
M 30.609375 56 
Q 42.328125 56 49.015625 48.375 
Q 55.71875 40.765625 55.71875 27.296875 
Q 55.71875 13.875 49.015625 6.21875 
Q 42.328125 -1.421875 30.609375 -1.421875 
Q 18.84375 -1.421875 12.171875 6.21875 
Q 5.515625 13.875 5.515625 27.296875 
Q 5.515625 40.765625 12.171875 48.375 
Q 18.84375 56 30.609375 56 
z
" id="DejaVuSans-111"/>
    </defs>
    <g transform="translate(156.670547 122.798906)scale(0.17 -0.17)">
     <use xlink:href="#DejaVuSans-113"/>
     <use x="63.476562" xlink:href="#DejaVuSans-117"/>
     <use x="126.855469" xlink:href="#DejaVuSans-97"/>
     <use x="188.134766" xlink:href="#DejaVuSans-110"/>
     <use x="251.513672" xlink:href="#DejaVuSans-116"/>
     <use x="290.722656" xlink:href="#DejaVuSans-117"/>
     <use x="354.101562" xlink:href="#DejaVuSans-109"/>
     <use x="451.513672" xlink:href="#DejaVuSans-32"/>
     <use x="483.300781" xlink:href="#DejaVuSans-99"/>
     <use x="538.28125" xlink:href="#DejaVuSans-111"/>
     <use x="599.462891" xlink:href="#DejaVuSans-110"/>
     <use x="662.841797" xlink:href="#DejaVuSans-116"/>
     <use x="702.050781" xlink:href="#DejaVuSans-114"/>
     <use x="740.914062" xlink:href="#DejaVuSans-111"/>
     <use x="802.095703" xlink:href="#DejaVuSans-108"/>
     <use x="829.878906" xlink:href="#DejaVuSans-32"/>
     <use x="861.666016" xlink:href="#DejaVuSans-115"/>
     <use x="913.765625" xlink:href="#DejaVuSans-101"/>
     <use x="975.289062" xlink:href="#DejaVuSans-113"/>
     <use x="1038.765625" xlink:href="#DejaVuSans-117"/>
     <use x="1102.144531" xlink:href="#DejaVuSans-101"/>
     <use x="1163.667969" xlink:href="#DejaVuSans-110"/>
     <use x="1227.046875" xlink:href="#DejaVuSans-99"/>
     <use x="1282.027344" xlink:href="#DejaVuSans-101"/>
     <use x="1343.550781" xlink:href="#DejaVuSans-115"/>
    </g>
    <!-- using QuTiP -->
    <defs>
     <path d="M -0.296875 72.90625 
L 61.375 72.90625 
L 61.375 64.59375 
L 35.5 64.59375 
L 35.5 0 
L 25.59375 0 
L 25.59375 64.59375 
L -0.296875 64.59375 
z
" id="DejaVuSans-84"/>
     <path d="M 19.671875 64.796875 
L 19.671875 37.40625 
L 32.078125 37.40625 
Q 38.96875 37.40625 42.71875 40.96875 
Q 46.484375 44.53125 46.484375 51.125 
Q 46.484375 57.671875 42.71875 61.234375 
Q 38.96875 64.796875 32.078125 64.796875 
z
M 9.8125 72.90625 
L 32.078125 72.90625 
Q 44.34375 72.90625 50.609375 67.359375 
Q 56.890625 61.8125 56.890625 51.125 
Q 56.890625 40.328125 50.609375 34.8125 
Q 44.34375 29.296875 32.078125 29.296875 
L 19.671875 29.296875 
L 19.671875 0 
L 9.8125 0 
z
" id="DejaVuSans-80"/>
    </defs>
    <g transform="translate(225.148672 141.835187)scale(0.17 -0.17)">
     <use xlink:href="#DejaVuSans-117"/>
     <use x="63.378906" xlink:href="#DejaVuSans-115"/>
     <use x="115.478516" xlink:href="#DejaVuSans-105"/>
     <use x="143.261719" xlink:href="#DejaVuSans-110"/>
     <use x="206.640625" xlink:href="#DejaVuSans-103"/>
     <use x="270.117188" xlink:href="#DejaVuSans-32"/>
     <use x="301.904297" xlink:href="#DejaVuSans-81"/>
     <use x="380.615234" xlink:href="#DejaVuSans-117"/>
     <use x="443.994141" xlink:href="#DejaVuSans-84"/>
     <use x="501.953125" xlink:href="#DejaVuSans-105"/>
     <use x="529.736328" xlink:href="#DejaVuSans-80"/>
    </g>
   </g>
  </g>
 </g>
 <defs>
  <clipPath id="p61a6c6fe0d">
   <rect height="166.32" width="558" x="-3.7" y="-7.2"/>
  </clipPath>
 </defs>
</svg>
